<svg width="410" height="410" viewBox="0 0 410 410" fill="none" xmlns="http://www.w3.org/2000/svg">
<path fill-rule="evenodd" clip-rule="evenodd" d="M0 78C0 34.9218 34.9218 0 78 0H332C375.078 0 410 34.9218 410 78V332C410 375.078 375.078 410 332 410H311.854L268.531 345.211C280.771 339.091 291.839 331.474 301.734 322.359C311.76 313.245 320.289 303.089 327.32 291.891C334.352 280.562 339.755 268.388 343.531 255.367C347.438 242.346 349.391 228.935 349.391 215.133C349.391 201.852 347.633 189.026 344.117 176.656C340.732 164.286 335.914 152.763 329.664 142.086C323.414 131.409 315.862 121.643 307.008 112.789C298.154 103.935 288.388 96.3828 277.711 90.1328C267.034 83.8828 255.51 79.0651 243.141 75.6797C230.771 72.1641 217.945 70.4062 204.664 70.4062C191.383 70.4062 178.557 72.1641 166.188 75.6797C153.948 79.0651 142.424 83.8828 131.617 90.1328C120.94 96.3828 111.174 103.935 102.32 112.789C93.4661 121.643 85.849 131.409 79.4688 142.086C73.2188 152.763 68.3359 164.286 64.8203 176.656C61.4349 189.026 59.7422 201.852 59.7422 215.133C59.7422 228.414 61.4349 241.24 64.8203 253.609C68.3359 265.849 73.2188 277.372 79.4688 288.18C85.849 298.857 93.4661 308.622 102.32 317.477C111.174 326.331 120.94 333.948 131.617 340.328C142.424 346.578 153.948 351.396 166.188 354.781C178.557 358.297 191.383 360.055 204.664 360.055H209.352C211.044 360.055 212.802 359.924 214.625 359.664L248.182 410H78C34.9218 410 0 375.078 0 332V78ZM255 215.5C255 243.39 232.39 266 204.5 266C176.61 266 154 243.39 154 215.5C154 187.61 176.61 165 204.5 165C232.39 165 255 187.61 255 215.5ZM286.695 180.562C291.383 191.37 293.727 202.893 293.727 215.133C293.727 227.372 291.383 238.896 286.695 249.703C282.008 260.38 275.628 269.755 267.555 277.828C259.612 285.901 250.172 292.281 239.234 296.969C228.427 301.656 216.904 304 204.664 304C192.294 304 180.706 301.656 169.898 296.969C159.091 292.281 149.651 285.901 141.578 277.828C133.505 269.755 127.125 260.38 122.438 249.703C117.75 238.896 115.406 227.372 115.406 215.133C115.406 202.893 117.75 191.37 122.438 180.562C127.125 169.625 133.505 160.185 141.578 152.242C149.651 144.169 159.091 137.789 169.898 133.102C180.706 128.414 192.294 126.07 204.664 126.07C216.904 126.07 228.427 128.414 239.234 133.102C250.172 137.789 259.612 144.169 267.555 152.242C275.628 160.185 282.008 169.625 286.695 180.562Z" fill="#101626"/>
<path fill-rule="evenodd" clip-rule="evenodd" d="M0 78C0 34.9218 34.9218 0 78 0H332C375.078 0 410 34.9218 410 78V332C410 375.078 375.078 410 332 410H311.854L268.531 345.211C280.771 339.091 291.839 331.474 301.734 322.359C311.76 313.245 320.289 303.089 327.32 291.891C334.352 280.562 339.755 268.388 343.531 255.367C347.438 242.346 349.391 228.935 349.391 215.133C349.391 201.852 347.633 189.026 344.117 176.656C340.732 164.286 335.914 152.763 329.664 142.086C323.414 131.409 315.862 121.643 307.008 112.789C298.154 103.935 288.388 96.3828 277.711 90.1328C267.034 83.8828 255.51 79.0651 243.141 75.6797C230.771 72.1641 217.945 70.4062 204.664 70.4062C191.383 70.4062 178.557 72.1641 166.188 75.6797C153.948 79.0651 142.424 83.8828 131.617 90.1328C120.94 96.3828 111.174 103.935 102.32 112.789C93.4661 121.643 85.849 131.409 79.4688 142.086C73.2188 152.763 68.3359 164.286 64.8203 176.656C61.4349 189.026 59.7422 201.852 59.7422 215.133C59.7422 228.414 61.4349 241.24 64.8203 253.609C68.3359 265.849 73.2188 277.372 79.4688 288.18C85.849 298.857 93.4661 308.622 102.32 317.477C111.174 326.331 120.94 333.948 131.617 340.328C142.424 346.578 153.948 351.396 166.188 354.781C178.557 358.297 191.383 360.055 204.664 360.055H209.352C211.044 360.055 212.802 359.924 214.625 359.664L248.182 410H78C34.9218 410 0 375.078 0 332V78ZM255 215.5C255 243.39 232.39 266 204.5 266C176.61 266 154 243.39 154 215.5C154 187.61 176.61 165 204.5 165C232.39 165 255 187.61 255 215.5ZM286.695 180.562C291.383 191.37 293.727 202.893 293.727 215.133C293.727 227.372 291.383 238.896 286.695 249.703C282.008 260.38 275.628 269.755 267.555 277.828C259.612 285.901 250.172 292.281 239.234 296.969C228.427 301.656 216.904 304 204.664 304C192.294 304 180.706 301.656 169.898 296.969C159.091 292.281 149.651 285.901 141.578 277.828C133.505 269.755 127.125 260.38 122.438 249.703C117.75 238.896 115.406 227.372 115.406 215.133C115.406 202.893 117.75 191.37 122.438 180.562C127.125 169.625 133.505 160.185 141.578 152.242C149.651 144.169 159.091 137.789 169.898 133.102C180.706 128.414 192.294 126.07 204.664 126.07C216.904 126.07 228.427 128.414 239.234 133.102C250.172 137.789 259.612 144.169 267.555 152.242C275.628 160.185 282.008 169.625 286.695 180.562Z" fill="url(#paint0_linear)"/>
<defs>
<linearGradient id="paint0_linear" x1="205" y1="0" x2="205" y2="332" gradientUnits="userSpaceOnUse">
<stop stop-color="#FF2D2D"/>
<stop offset="1" stop-color="#345D8E" stop-opacity="0"/>
</linearGradient>
</defs>
</svg>
